inDegrees=no
num_controls=7
num_derivatives=13
num_iterations=128
num_multipliers=7
num_parameters=0
num_slacks=7
num_states=26
objective=5.582297
objective_accelerations=0.595738
objective_balance=0.008677
objective_effort=0.455477
objective_height=4.496009
objective_ligament=0.026397
solver_duration=1064.692223
status=Solve_Succeeded
success=true
DataType=double
version=3
OpenSimVersion=4.4-2022-07-23-0e9fedc
endheader
time	/jointset/ground_pelvis/pelvis_tilt/value	/jointset/ground_pelvis/pelvis_tx/value	/jointset/ground_pelvis/pelvis_ty/value	/jointset/hip_r/hip_flexion_r/value	/jointset/hip_r/hip_adduction_r/value	/jointset/hip_r/hip_rotation_r/value	/jointset/back/lumbar_extension/value	/jointset/patellofemoral_r/patellar_flexion_r/value	/jointset/knee_r/knee_flexion_r/value	/jointset/knee_r/knee_adduction_r/value	/jointset/knee_r/knee_rotation_r/value	/jointset/ankle_r/ankle_angle_r/value	/jointset/subtalar_r/subtalar_angle_r/value	/jointset/ground_pelvis/pelvis_tilt/speed	/jointset/ground_pelvis/pelvis_tx/speed	/jointset/ground_pelvis/pelvis_ty/speed	/jointset/hip_r/hip_flexion_r/speed	/jointset/hip_r/hip_adduction_r/speed	/jointset/hip_r/hip_rotation_r/speed	/jointset/back/lumbar_extension/speed	/jointset/patellofemoral_r/patellar_flexion_r/speed	/jointset/knee_r/knee_flexion_r/speed	/jointset/knee_r/knee_adduction_r/speed	/jointset/knee_r/knee_rotation_r/speed	/jointset/ankle_r/ankle_angle_r/speed	/jointset/subtalar_r/subtalar_angle_r/speed	/forceset/tau_hip_flexion_r	/forceset/tau_hip_adduction_r	/forceset/tau_hip_rotation_r	/forceset/tau_knee_flexion_r	/forceset/tau_ankle_angle_r	/forceset/tau_subtalar_angle_r	/forceset/tau_lumbar_extension	lambda_cid13_p0	lambda_cid14_p0	lambda_cid14_p1	lambda_cid14_p2	lambda_cid14_p3	lambda_cid14_p4	lambda_cid14_p5	/jointset/ground_pelvis/pelvis_tilt/accel	/jointset/ground_pelvis/pelvis_tx/accel	/jointset/ground_pelvis/pelvis_ty/accel	/jointset/hip_r/hip_flexion_r/accel	/jointset/hip_r/hip_adduction_r/accel	/jointset/hip_r/hip_rotation_r/accel	/jointset/back/lumbar_extension/accel	/jointset/patellofemoral_r/patellar_flexion_r/accel	/jointset/knee_r/knee_flexion_r/accel	/jointset/knee_r/knee_adduction_r/accel	/jointset/knee_r/knee_rotation_r/accel	/jointset/ankle_r/ankle_angle_r/accel	/jointset/subtalar_r/subtalar_angle_r/accel	gamma_cid13_p0	gamma_cid14_p0	gamma_cid14_p1	gamma_cid14_p2	gamma_cid14_p3	gamma_cid14_p4	gamma_cid14_p5
1.5	-0.07727786378793348	0.03581875058316163	0.8189406998508665	0.7962764286363985	-0.2382269218821824	-0.09201037894440692	-0.6245288576865129	0.9390366409623787	0.9390366409623814	0.009204609523061697	0.1745158937950123	0.3028527752759477	0.1175310042471861	0.4413898509176635	0.2201117924349631	0.4978518287251108	-1.97418141390524	0.02535084648093356	-0.3492773106845154	0.8004581871575244	-1.962881478385171	-1.962881478385203	0.2835250121752732	0.0001362945838539503	-0.5231074898726936	-0.1512352604366021	-0.1552124638367741	-0.002037684991743377	0.02725363486197622	-0.3084965410281921	0.0121521452287856	-0.007503663837620076	0.2101584775839715	-8.95111200779527	-38.50619488976059	-8.744996176531874	0.3814700942711215	-2.550193018895909	-631.0527643213538	63.53877993934907	0.1319752101632987	0.5499052386188892	-0.5007482355141681	-0.9763776253252616	-0.04490528561997069	-0.2272732880071031	1.775643996536441	-1.341034419642643	-1.341034419642638	0.6568655939174599	-0.05772295755483656	-0.6280679124365844	-0.1669080325314271	3.447159027222584e-08	-1.713895648514493e-07	-2.702112894187871e-06	-1.202541382125613e-06	3.802600783437603e-07	6.09207955299506e-08	-1.728551350188126e-06
1.51	-0.07285777400761456	0.03804714102111606	0.8238931775863086	0.7764879275384743	-0.2379759546636727	-0.09551786033489967	-0.6164368326154027	0.9193430466428254	0.9193430466428142	0.01207040472799467	0.1745169776645888	0.2975910048866247	0.1160102495002673	0.4425623024160172	0.2255404424225416	0.492540199411107	-1.983262059037669	0.02483391288350442	-0.3522209292303561	0.8178394248243875	-1.975569958461313	-1.975569958461356	0.2896095729189702	8.926926376448275e-05	-0.5291639580779662	-0.1528918220479259	-0.1482385301848439	-0.00316699952292856	0.02696820066133905	-0.3045025217215617	0.01397651096568643	-0.008368796182367343	0.2036972535136087	-9.996189637560665	-37.67083209984797	-8.881231044348297	0.2967022882687612	-2.682273502099721	-626.3705424069793	63.01795748103805	0.09999058121262458	0.535535820803836	-0.5618909656924261	-0.8354196965822946	-0.05672052369435408	-0.3281677227220407	1.703253315300437	-1.192645492119189	-1.192645492120864	0.5802443537322787	0.02282968038748558	-0.5819706628641873	-0.1619669260365583	2.739522300715985e-08	-1.670931153081244e-07	-2.497670536009867e-06	-1.195096371268731e-06	3.564968225281364e-07	4.432908053176992e-08	-1.541457242223831e-06
1.52	-0.06842793762001714	0.04032905614734108	0.8287894348913406	0.756616317641334	-0.2377304834065196	-0.09905483022782417	-0.6081742172349183	0.8995305893843965	0.8995305893843952	0.01499624414813714	0.1745177956808618	0.2922711629375925	0.114473541797114	0.4433391723760516	0.2308167300890827	0.4866077426431208	-1.990803173745318	0.0242516542104985	-0.3551750111701835	0.8345762490328414	-1.986654066158224	-1.986654066158278	0.2955338552281316	8.312392861331352e-05	-0.5347218018148981	-0.1544258516834002	-0.1412645965329566	-0.004296314054169473	0.02668276646092014	-0.3005085024149244	0.01580087670257317	-0.009233928527206947	0.1972360294432142	-11.0450396169859	-36.83701160555316	-9.015327077173181	0.2088433709638105	-2.814841616917305	-621.7151899812426	62.50492057743731	0.05285890249894772	0.5194327744117772	-0.6249137263106024	-0.6684715403694854	-0.05797030073529364	-0.2293659668042506	1.646761304854383	-1.020159943796495	-1.020159943796501	0.6248099070104183	-0.04954696056754856	-0.5283430187680171	-0.1424016373612679	2.283376893591401e-08	-1.679826456046097e-07	-2.403814023520163e-06	-1.22733969552253e-06	3.463600620954896e-07	3.173102094063501e-08	-1.42257871972814e-06
1.53	-0.06399234781352721	0.04266288310825475	0.8336233096684884	0.7366771518119529	-0.2374910235290544	-0.1026214694741163	-0.5997476084614571	0.8796154426681455	0.8796154426681357	0.01798028769654373	0.1745187095141601	0.2868982926228806	0.1129223268214448	0.4437112053675804	0.2359136025922	0.4800685069850451	-1.996758131419486	0.02363503642483623	-0.3581422852978626	0.8506193868652115	-1.996091633164481	-1.996091633164535	0.3012501380180305	9.951605953725931e-05	-0.5397656325423226	-0.1557888236954808	-0.1342766508413662	-0.005421285102183405	0.02628193410456401	-0.2965077502171221	0.01744367493190642	-0.01008871557484277	0.1907285772745253	-12.09341265238145	-36.07264626731813	-9.152622522322327	0.1163888579347217	-2.847701937296601	-617.2054093197982	61.99839825398016	0.01921753415740939	0.4996261691799082	-0.6832305749541443	-0.5182542814317328	-0.06466841646758822	-0.3288127368967947	1.564172202847596	-0.8630124767146038	-0.8630124767145784	0.5409711497061351	0.02689451761366136	-0.479335802256405	-0.1295391435319663	2.094441013310204e-08	-1.743822794808932e-07	-2.427454972074275e-06	-1.301751875831426e-06	3.507014530072557e-07	2.337622021948621e-08	-1.376179256792839e-06
1.54	-0.05955506926980176	0.04504664113038268	0.8383888316711756	0.7166865871257148	-0.237257962009251	-0.1062174623819107	-0.5911643518735912	0.8596144288022854	0.8596144288022916	0.02102068080975237	0.1745197197122498	0.2814775974603898	0.1113582232935739	0.4436769198262465	0.2408029423319334	0.4729371877510158	-2.0010829451133	0.02297198267975117	-0.3610457434714317	0.8659058119143785	-2.00382749607771	-2.003827496077764	0.3068037681969939	0.0001023968981144222	-0.5442867713708134	-0.1570035621235846	-0.127288705149817	-0.006546256150225171	0.02588110174840477	-0.2925069980193172	0.01908647316123291	-0.0109435026225263	0.184221125105803	-13.13780860008892	-35.31040068721227	-9.288894331610015	0.02217919966220075	-2.877201146214256	-612.7283362282336	61.49310182343669	-0.0284048040741202	0.4779262217353791	-0.7433304415012661	-0.3424427442985344	-0.06725749261976645	-0.2166027759819068	1.49541874821351	-0.6798191251910265	-0.6798191251910306	0.5922793848233706	-0.05224921903743866	-0.4238046389808858	-0.1127549205655488	1.898785603107165e-08	-1.805930293632131e-07	-2.451924755546795e-06	-1.377951260118725e-06	3.54503107570632e-07	1.588021191782045e-08	-1.32715039635651e-06
1.55	-0.05512019351396156	0.04747818651034727	0.8430801416850188	0.6966610511351874	-0.2370316425228655	-0.1098423776114098	-0.582432233291501	0.8395447008639381	0.8395447008639244	0.02411548671572087	0.1745207842059596	0.2760143942587797	0.1097829142649027	0.4432273176996013	0.245463811918209	0.4652319244730698	-2.003736776321309	0.02228784640973575	-0.3639248186705087	0.8803693039423625	-2.00981617636139	-2.00981617636144	0.3121268808439921	0.0001132111385674714	-0.5482599606960531	-0.1580276713309019	-0.1201621092479845	-0.007831134740426269	0.02537071804898455	-0.2887776785924906	0.02092474847144509	-0.01175013640714134	0.177599418877297	-14.17395564129974	-34.49523201591715	-9.390621464919773	-0.08252522395221287	-2.92299917212886	-608.4422813591847	61.10300370891136	-0.06389698657896058	0.453890956584345	-0.7980567007043584	-0.1837592789304592	-0.07001008690699605	-0.3216967185516296	1.399524345416657	-0.513108360367194	-0.5131083603666229	0.4973658733640599	0.0278112045779606	-0.3699144789404447	-0.09322211755244265	1.695388125820264e-08	-1.865861520350966e-07	-2.477349500990523e-06	-1.456209814207229e-06	3.576828919934724e-07	9.373681838602474e-09	-1.275092012712473e-06
1.56	-0.05069194559332817	0.04995508531207617	0.8476916125801296	0.6766175956385856	-0.2368123680777291	-0.1134957109582398	-0.5735599378060684	0.8194241429466539	0.8194241429466536	0.02726253148184132	0.1745219697337726	0.2705142914839909	0.1081981675048097	0.4423513527882311	0.2498736266847978	0.4569693640045527	-2.004666846324442	0.02156297443116958	-0.3667293669368438	0.8939411925834078	-2.0139934918615	-2.013993491861547	0.3172515402400437	0.0001266037386779139	-0.5516666860070867	-0.1588911084077316	-0.113035513346206	-0.00911601333071221	0.02486033434990405	-0.285048359165658	0.02276302378163274	-0.01255677019189624	0.1709777126487557	-15.19882326508557	-33.68253982080435	-9.49281691232537	-0.1871141494290984	-2.961642620166521	-604.190144685103	60.70547180048658	-0.1136773610196891	0.4277152577983702	-0.8547898796154294	0.002309496676782821	-0.07540463432977737	-0.2016973894329884	1.317098070825504	-0.3175461684772017	-0.317546168477203	0.5525887346340117	-0.05173354710679454	-0.3105118361391877	-0.08062049446755894	1.662488827873712e-08	-1.916034425425445e-07	-2.51756133605615e-06	-1.528286501243778e-06	3.613888817109159e-07	4.958535511012193e-09	-1.229599912208513e-06
1.57	-0.04627459004996674	0.05247478400861314	0.8522177681842374	0.6565734720675683	-0.2366004477996671	-0.1171768807367713	-0.5645566301330973	0.7992709266577293	0.7992709266577503	0.03045962521030791	0.1745234178986539	0.2649830330709839	0.1066057457192347	0.4410456190476386	0.2540192229859363	0.448177344550429	-2.003861461904636	0.02081794111892692	-0.3694808345644013	0.9065501337116081	-2.016334948382258	-2.01633494838234	0.3221380233099905	0.0001617107395420363	-0.5544832003281711	-0.1595609508920189	-0.1057173816344548	-0.01036006902064737	0.02424055559386751	-0.2818542686965063	0.02517764984197284	-0.01349924898258781	0.1642440408418989	-16.21005912903765	-32.71457253594287	-9.643565936776753	-0.2648381741688314	-3.114798573124634	-600.2591612734749	60.27053441485351	-0.1501654486524244	0.40102202488352	-0.9040693940129721	0.1640845712254853	-0.0749743894339399	-0.3083316090562235	1.207260888430264	-0.1452266567412185	-0.1452266567464258	0.4518856627105401	0.03057477344461562	-0.2518715164384697	-0.05592469749306589	1.842712254102594e-08	-1.95400942844448e-07	-2.576257033149151e-06	-1.592635854465386e-06	3.657526280466133e-07	3.157618872956497e-09	-1.19231566562965e-06
1.58	-0.04187252065764512	0.05503454670988321	0.8566534713106631	0.6365462886720508	-0.2363961621966873	-0.120884857223503	-0.5554323392979243	0.7791037395510608	0.7791037395510546	0.03370462528341772	0.1745251055233881	0.2594266794574972	0.105007473794399	0.4392941225841533	0.2578864276314167	0.4388788684681447	-2.001278811221115	0.02003603941619768	-0.3720907085775293	0.9181378250243585	-2.016787655417661	-2.016787655417779	0.3268328091613586	0.0001744957308924078	-0.5566857261030691	-0.1600611362596641	-0.09839924992272581	-0.01160412471061373	0.02362077683736368	-0.2786601782273797	0.02759227590230334	-0.01444172777332559	0.1575103690350307	-17.20587529613601	-31.74820167297109	-9.795063733796949	-0.3419057765823297	-3.259177566007097	-596.3493748576458	59.82040689718502	-0.2028299055988564	0.3720369266671336	-0.9560812052474873	0.3577627494194365	-0.08277831242677934	-0.1733786665463356	1.112848107735158	0.0602037285936093	0.06020372859360928	0.514249290918228	-0.05619794901066932	-0.1877141269014251	-0.0466890711385515	1.718067403310175e-08	-1.893137076356831e-07	-2.501488384215927e-06	-1.580176966051963e-06	3.507806663515711e-07	1.277657775309239e-08	-1.099812806873523e-06
1.59	-0.03749014522532131	0.0576314301337157	0.8609937346697486	0.616554021967847	-0.2361996702347914	-0.1246180439849583	-0.5461974534100502	0.7589416424479127	0.7589416424478547	0.03699534899667356	0.1745265281263508	0.2538513676599053	0.1034053277733045	0.4371109627737466	0.2614275231937772	0.4290962490673721	-1.996852109457884	0.01927238558420349	-0.3745698404721619	0.9286518644446997	-2.015293209780419	-2.015293209780535	0.3312172851715058	0.0001371830008070444	-0.5582719225935217	-0.1603172043111617	-0.09144690051243494	-0.01245981720372396	0.02284031457944504	-0.2749004621149251	0.02890052857878591	-0.01531652135318299	0.1510189443895084	-18.18511052253149	-31.15869309406756	-9.968547673478044	-0.4321505318157285	-3.045999228397813	-592.7612640349524	59.28807593016177	-0.2365799414353496	0.335792782138869	-1.000974877035194	0.5334625383821651	-0.07203931672018404	-0.2886959176880303	0.9925586427839533	0.2448465789345638	0.2448465789347718	0.386003180003526	0.02627760307884268	-0.1283004016467182	-0.007930418712275034	1.179672747988873e-08	-1.698114742338692e-07	-2.24558955138998e-06	-1.463478321133862e-06	3.095673866148122e-07	3.789393912220172e-08	-9.323704030196843e-07
